<svg width="452" height="90" viewBox="0 0 452 90" fill="none" xmlns="http://www.w3.org/2000/svg">
<path d="M46.208 0H65.28V89.6H62.72V89.728H40.576C37.76 89.728 35.2 87.808 34.176 85.12L8.06402 14.08H6.91202V89.6H2.38419e-05V0.127998H12.928C15.744 0.127998 18.432 2.048 19.328 4.736L45.44 75.776H46.208V0ZM126.685 0.127998H144.477V56.32H144.349C143.581 74.752 128.349 89.6 109.661 89.6C90.845 89.6 75.613 74.752 74.845 56.32V55.936C74.845 55.552 74.845 55.168 74.845 54.784V0.127998H92.637V23.936C92.637 23.936 92.637 24.064 92.637 24.192V65.792C92.637 75.136 100.189 82.816 109.661 82.816C119.005 82.816 126.557 75.136 126.557 65.792V54.784H126.685V0.127998ZM209.677 0.127998H224.013L201.357 84.736C200.589 87.168 198.541 89.088 196.109 89.6H169.613L149.005 0.127998H168.461L185.997 75.904H189.325L209.677 0.127998ZM311.373 51.712H292.813H234.061C232.909 58.752 235.085 66.176 240.461 71.552C249.421 80.64 264.013 80.64 272.973 71.552L282.189 62.336H308.429C301.517 78.336 285.645 89.6 267.213 89.6C242.509 89.6 222.541 69.504 222.541 44.8C222.541 20.096 242.509 0 267.213 0C291.917 0 312.013 20.096 312.013 44.8C312.013 47.104 311.757 49.536 311.373 51.712ZM241.741 37.888H300.493C301.517 30.848 299.341 23.424 293.965 18.048C285.005 9.08801 270.413 9.08801 261.453 18.048L241.741 37.888ZM375.857 0.256004L353.585 48.512L373.937 89.6H366.257L346.673 50.048L328.241 89.6H307.377L329.137 42.496L308.273 0.256004H315.953L336.177 40.832L354.993 0.256004H375.857ZM430.771 0.256004L451.507 89.728H431.923L425.011 59.392H398.899L390.707 89.728H376.499L399.155 5.12C399.795 2.688 401.715 0.896004 404.147 0.256004H430.771ZM400.691 52.48H423.347L414.387 13.824H411.187L400.691 52.48Z" fill="#0D1B2A"/>
</svg>
