<svg width="1440" height="1024" viewBox="0 0 1440 1024" fill="none" xmlns="http://www.w3.org/2000/svg">
<g clip-path="url(#clip0_5_25)">
<rect width="1440" height="1024" fill="#589EB7"/>
<path d="M986.5 -8.5L732.5 332.5H907.5L1164 -8.5H986.5Z" fill="#6AACB9"/>
<path fill-rule="evenodd" clip-rule="evenodd" d="M567.078 341.5H508L811 -8.5H861L572.5 341.5H567.078Z" fill="#5DA4B8"/>
<path d="M732.5 332.5L986.5 -8.5H861L572.5 341.5H567.078L554.5 364.5L732.5 332.5Z" fill="#6AACB9"/>
<path d="M1192 529L1432 224L1442.5 205.5V157L1261.76 395L1160 529H1187H1190H1192Z" fill="#A8D1C1"/>
<path d="M1432 224L1192 529H1442.5V205.5L1432 224Z" fill="#BAD5C1"/>
<path d="M1442.5 157L1448.5 47L1201.69 368.182L1260.61 400.373L1442.5 157Z" fill="#A3CEC3"/>
<path d="M942 529H1073.5L1201.69 368.182L1448.5 47V-0.5H1392.25L1253 180H1201.69L942 529Z" fill="#AAD1C1"/>
<path d="M1336 -0.5L1201.69 180H1253L1392.25 -0.5H1336Z" fill="#8BC2BE"/>
<path d="M735.5 529H942L1201.69 180L1336 -0.5H1237.75L1008.5 321.5L916.327 292L735.5 529Z" fill="#7BB8BC"/>
<path d="M1139.5 -0.5L916.327 292L1008.5 321.5L1237.75 -0.5H1139.5Z" fill="#73B3BC"/>
<path d="M-16 532.66H600.622C587.809 510.832 577.101 502.434 552.522 493.356C540.785 489.741 533.418 488.653 514.673 493.356C514.671 477.876 510.184 475.933 498.903 477.389C498.543 460.37 497.706 451.209 471.305 449.754C461.779 428.451 463.532 414.501 416.897 403.694C404.376 393.054 400.344 398.333 394.03 411.063C395.568 399.317 394.546 393.598 367.22 395.096C351.923 383.168 344.087 374.864 319.12 384.042C302.857 377.944 291.7 378.136 268.655 384.042C269.49 371.64 267.343 364.804 247.365 353.336C243.309 329.952 235.837 328.703 212.67 348.423C200.46 331.515 193.599 322.067 166.936 334.298C157.701 326.983 152.512 326.843 143.281 334.298C141.684 325.822 138.522 324.543 128.299 329.385C123.497 317.042 118.211 317.467 107.009 323.244C98.0332 296.752 100.261 277.696 30.5226 286.396C16.5567 270.078 5.74815 270.445 -16 279.027V532.66Z" fill="#E0DDBE"/>
<path d="M23.4259 237.266C14.7312 220.82 4.92893 217.651 -16 217V279.027C5.74815 270.445 16.5567 270.078 30.5226 286.396C100.261 277.696 98.0332 296.752 107.009 323.244C118.211 317.467 123.497 317.042 128.299 329.385C138.522 324.543 141.684 325.822 143.281 334.298C152.512 326.843 157.701 326.983 166.936 334.298C193.599 322.067 200.46 331.515 212.67 348.423C235.837 328.703 243.309 329.952 247.365 353.336C267.343 364.804 269.49 371.64 268.655 384.042C291.7 378.136 302.857 377.944 319.12 384.042C344.087 374.864 351.923 383.168 367.22 395.096C394.546 393.598 395.568 399.317 394.03 411.063C400.344 398.333 404.376 393.054 416.897 403.694C463.532 414.501 461.779 428.451 471.305 449.754C497.706 451.209 498.543 460.37 498.903 477.389C510.184 475.933 514.671 477.876 514.673 493.356C533.418 488.653 540.785 489.741 552.522 493.356C577.101 502.434 587.809 510.832 600.622 532.66C606.979 533.531 611.035 534.882 600.622 506.253C574.921 490.706 559.184 483.853 521.77 484.758C538.951 470.375 539.452 464.4 506.788 461.422C519.351 453.932 521.542 449.148 514.673 439.313C512.678 424.554 508.368 421.651 492.595 430.101C499.916 416.797 491.546 414.02 471.305 411.063C466.853 387.909 460.598 377.745 416.897 384.042C399.642 371.884 391.746 376.224 378.259 387.727C367.951 360.679 348.829 356.778 293.888 367.461C280.532 317.325 287.503 278.858 155.897 313.418C164.652 299.611 159.139 294.883 128.299 292.537C181.279 227.245 152.389 236.313 88.0845 262.445C80.6372 245.649 86.2734 232.394 23.4259 237.266Z" fill="#FDF6DB"/>
<path d="M847.238 30.133C839.396 32.0472 834.979 34.9939 829.738 41.133C824.685 47.0509 823.317 57.4792 823.053 65.1331L847.238 56.633C856.682 53.3135 856.705 56.1338 862.738 56.633C875.624 57.6992 881.824 65.7891 894.738 65.1331C905.592 64.5816 910.462 55.2155 921.238 56.633C928.945 57.6469 931.558 63.9248 939.238 65.1331C950.896 66.9674 956.437 56.485 968.238 56.633C982.018 56.8058 988.303 73.8883 1001.24 69.1331C1013.34 64.6836 1006.27 44.4148 1018.74 41.133C1032.35 37.5494 1035.64 55.9536 1048.74 61.1331C1059.67 65.4575 1066.57 68.5533 1078.24 67.1331C1088.57 65.8755 1102.74 56.633 1102.74 56.633C1115.48 50.0612 1127.52 47.5278 1094.24 30.133C1092.64 16.6596 1090.36 11.8135 1076.24 22.633L1063.24 15.633C1049.57 15.8231 1048.6 22.3649 1054.24 41.133C1040.58 24.1501 1043.07 1.30041 1000.24 22.633C994.967 16.4432 992.009 15.1844 986.738 22.633C979.335 19.3071 977.143 20.1771 979.238 30.133C979.238 30.133 957.238 19.133 968.238 41.133C979.238 63.133 951.256 22.2622 939.238 30.133C927.219 38.0037 922.738 37.133 912.738 30.133C902.738 23.133 896.52 25.343 888.238 30.133C883.212 33.0394 883.909 39.8899 878.238 41.133C870.987 42.7223 869.879 32.1572 862.738 30.133C856.914 28.4822 853.118 28.6976 847.238 30.133Z" fill="#FBF7D9"/>
<path d="M1094.24 71.133C1104.48 69.3094 1109.28 67.7676 1102.74 56.633C1102.74 56.633 1088.57 65.8755 1078.24 67.1331C1066.57 68.5533 1059.67 65.4575 1048.74 61.1331C1035.64 55.9536 1032.35 37.5494 1018.74 41.133C1006.27 44.4148 1013.34 64.6836 1001.24 69.1331C988.303 73.8883 982.018 56.8058 968.238 56.633C956.437 56.485 950.896 66.9674 939.238 65.1331C931.558 63.9248 928.945 57.6469 921.238 56.633C910.462 55.2155 905.592 64.5816 894.738 65.1331C881.824 65.7891 875.624 57.6992 862.738 56.633C856.705 56.1338 856.682 53.3135 847.238 56.633L823.053 65.1331C822.865 70.5875 823.238 74.633 823.238 74.633C874.3 80.7636 980.61 65.2383 993.238 74.633C1036.63 106.919 1048.27 85.6177 1048.74 74.633C1068.5 79.2286 1079.94 82.8821 1094.24 71.133Z" fill="#E3DABD"/>
<path d="M864.695 65.1715C855.898 67.5688 857.131 70.8633 860.695 77.1715C857.914 94.3777 865.55 100.495 883.695 109.671C911.025 121.219 926.843 123.518 957.195 109.671C971.664 117.417 979.573 119.792 992.195 109.671C999.852 107.747 1003.31 105.479 1004.69 94.6715C1004.69 94.6715 1002.11 96.5091 1000.19 96.6714C995.509 97.0685 996.884 88.022 992.195 87.6714C988.354 87.3844 987.263 91.2225 983.695 92.6714C976.962 95.4055 972.461 94.7537 965.195 94.6715C952.594 94.529 921.732 91.6341 933.695 87.6714C942.424 84.7797 952.435 97.0398 957.195 89.1714C962.514 80.3784 946.783 74.6303 936.695 72.6714C929.321 71.2396 921.878 81.9106 917.695 75.6714C913.658 69.6511 927.531 66.2957 926.195 59.1714C924.638 50.8678 909.131 55.5678 908.195 47.1714C907.889 44.427 909.195 41.1714 909.195 40.1714C909.195 39.1714 905.853 39.2181 903.695 38.6714C901.169 38.0318 899.567 36.0956 897.195 37.1714C893.95 38.6429 899.043 44.9527 895.695 46.1715C892.428 47.3605 892.161 40.3984 888.695 40.6714C887.464 40.7685 886.923 41.5444 885.695 41.6714C883.904 41.8567 882.908 40.1182 881.195 40.6714C878.867 41.4233 880.572 45.5936 878.195 46.1715C877.436 46.3559 876.195 46.1715 876.195 46.1715C872.502 41.3162 870.694 40.8198 868.195 46.1715C862.916 47.0994 862.976 48.9856 868.195 54.6715C861.07 57.3041 858.885 59.2418 864.695 65.1715Z" fill="#E6DDBE"/>
<path d="M876.195 36.1715C870.89 33.7299 871.069 36.1235 876.195 46.1715C876.195 46.1715 877.436 46.3559 878.195 46.1715C880.572 45.5936 878.867 41.4233 881.195 40.6714C882.908 40.1182 883.904 41.8567 885.695 41.6714C886.923 41.5444 887.464 40.7685 888.695 40.6714C892.161 40.3984 892.428 47.3605 895.695 46.1715C899.043 44.9527 893.95 38.6429 897.195 37.1714C899.567 36.0956 901.169 38.0318 903.695 38.6714C905.853 39.2181 909.195 39.1714 909.195 40.1714C909.195 41.1714 907.889 44.427 908.195 47.1714C909.131 55.5678 924.638 50.8678 926.195 59.1714C927.531 66.2957 913.658 69.6511 917.695 75.6714C921.878 81.9106 929.321 71.2396 936.695 72.6714C946.783 74.6303 962.514 80.3784 957.195 89.1714C952.435 97.0398 942.424 84.7797 933.695 87.6714C921.732 91.6341 952.594 94.529 965.195 94.6715C972.461 94.7537 976.962 95.4055 983.695 92.6714C987.263 91.2225 988.354 87.3844 992.195 87.6714C996.884 88.022 995.509 97.0685 1000.19 96.6714C1002.11 96.5091 1004.69 94.6715 1004.69 94.6715C1009 91.1567 1007.85 89.1862 1004.69 85.6715C1012.7 76.1806 1010.97 71.5767 992.195 65.1715C990.081 51.4469 988.325 44.2295 957.195 54.6715C956.877 45.2856 957.673 39.9726 936.695 31.6715C934.084 26.8935 932.405 27.4431 929.195 31.6715C925.854 27.9121 923.418 27.6638 917.695 31.6715C917.207 29.6112 916.84 28.5488 911.195 31.6715C910.699 25.397 907.553 25.9781 898.695 31.6715C894.857 26.7465 893.058 28.5349 890.195 36.1715C889.47 18.9428 885.066 23.8068 876.195 36.1715Z" fill="#FDF6D9"/>
<path d="M59.3468 406.805C57.3204 414.842 44.3468 406.805 38.8468 412.305C33.3468 417.805 16.8097 410.265 22.3468 423.805C10.004 422.75 1.75719 420.526 6.34678 440.305C11.8468 430.305 16.0984 436.038 22.3468 433.305C28.5952 430.571 26.268 439.532 30.3467 440.305C34.9829 441.183 36.685 436.036 41.3467 435.305C48.5541 434.173 52.1862 441.702 59.3468 440.305C63.6321 439.468 64.9855 435.096 69.3467 435.305C74.6164 435.557 74.8733 442.045 79.8468 443.805C84.8168 445.563 88.7935 446.462 93.3467 443.805C98.4002 440.855 94.5068 432.697 99.8467 430.305C103.18 428.811 105.663 429.413 109.181 430.264L109.347 430.305C115.572 431.811 117.415 436.217 122.347 440.305C125.331 442.778 126.005 446.291 129.847 446.805C141.406 448.349 138.347 457.305 138.347 457.305C138.347 457.305 149.847 462.305 151.347 470.305C152.847 478.305 157.847 477.305 157.847 477.305C165.854 476.317 167.751 479.126 169.847 485.805C180.928 488.331 181.178 493.056 182.847 500.805C187.424 494.753 189.312 496.094 192.347 500.805C196.943 500.917 197.614 502.086 196.847 505.305C206.877 491.21 206.932 486.548 182.847 492.305C185.273 481.407 182.156 479.008 169.847 480.305C172.113 471.775 172.744 467.507 160.847 470.305C160.963 463.332 158.982 460.454 151.347 457.305C151.461 444.759 148.588 440.366 134.847 440.305C143.024 436.399 140.946 434.21 134.847 430.305C138.698 421.089 139.297 416.313 122.347 412.305C121.886 403.039 125.881 393.624 109.347 400.305C98.722 393.034 92.5338 390.835 79.8468 400.305C78.3407 396.068 63.0399 392.157 59.3468 406.805Z" fill="#FDF6DA"/>
<path d="M38.8468 512.805C70.374 536.308 133.921 544.84 196.847 505.305C197.614 502.086 196.943 500.917 192.347 500.805C189.312 496.094 187.424 494.753 182.847 500.805C181.178 493.056 180.928 488.331 169.847 485.805C167.751 479.126 165.854 476.317 157.847 477.305C157.847 477.305 152.847 478.305 151.347 470.305C149.847 462.305 138.347 457.305 138.347 457.305C138.347 457.305 141.406 448.349 129.847 446.805C126.005 446.291 125.331 442.778 122.347 440.305C117.415 436.217 115.572 431.811 109.347 430.305L109.181 430.264C105.663 429.413 103.18 428.811 99.8467 430.305C94.5068 432.697 98.4002 440.855 93.3467 443.805C88.7935 446.462 84.8168 445.563 79.8468 443.805C74.8733 442.045 74.6164 435.557 69.3467 435.305C64.9855 435.096 63.6321 439.468 59.3468 440.305C52.1862 441.702 48.5541 434.173 41.3467 435.305C36.685 436.036 34.9829 441.183 30.3467 440.305C26.268 439.532 28.5952 430.571 22.3468 433.305C16.0984 436.038 11.8468 430.305 6.34678 440.305C-0.489349 446.642 -2.25521 450.286 6.34678 457.305C0.733598 458.946 -1.32215 460.948 0.846784 470.305C1.44525 478.588 4.70451 479.769 11.8468 480.305C4.65814 486.944 5.22283 490.665 11.8468 497.305C9.79133 505.021 14.2832 505.123 22.2307 505.302L22.3468 505.305C28.5456 512.78 32.2331 513.035 38.8468 512.805Z" fill="#E0DBBD"/>
<path d="M264.585 179.913C290.267 194.962 302.393 190.515 323.552 179.913C357.45 196.85 382.447 205.129 403.286 179.913C405.212 181.365 406.153 181.089 407.737 179.913C411.209 181.101 413.076 181.485 415.767 179.913C418.936 181.142 420.684 181.17 423.684 179.913C427.084 181.883 428.802 181.253 431.843 179.913C434.726 181.474 436.259 181.439 438.889 179.913C443.031 181.934 445.063 182.339 447.419 179.913C450.451 181.256 451.944 181.015 454.465 179.913C458.092 182.28 459.223 181.511 461.141 179.913C464.079 181.892 465.291 181.021 467.549 179.913C469.972 190.711 472.37 176.105 476.027 179.913C479.684 183.721 481.543 182.475 484.505 179.913C485.606 178.639 484.789 178.607 482.864 178.771C482.869 177.7 480.537 181.437 481.223 177.628C481.909 173.82 480.719 176.103 479.313 176.298C479.269 175.315 479.11 174.824 477.088 174.749C477.138 173.397 476.679 173.482 475.753 173.82C474.247 171.781 472.962 169.829 473.496 171.655C473.874 171.896 473.694 172.119 473.75 172.425C473.641 172.116 473.557 171.861 473.496 171.655C473.259 171.503 472.801 171.345 471.925 171.154C472.279 170.979 471.881 170.731 470.412 170.101C470.95 168.621 470.387 168.623 468.929 169.068L468.927 169.035C468.886 168.413 468.863 168.054 467.549 168.108C467.516 166.822 466.91 166.955 465.962 167.002C465.387 165.007 465.016 164.752 464.268 165.823C464.321 164.88 464.096 164.533 462.627 164.68C463.202 163.812 462.831 163.6 461.141 163.645C461.295 162.672 460.768 162.429 459.211 162.302C457.888 161.64 457.098 161.43 455.317 162.302C453.797 160.409 453.019 159.641 451.498 162.395C449.776 160.505 448.948 160.067 448.16 162.395C447.512 161.77 447.181 161.782 446.677 162.395C445.032 161.977 444.094 161.814 442.227 162.395C441.123 161.156 440.277 161.868 438.889 162.395C438.225 161.356 437.554 161.662 436.293 162.395C434.609 160.359 433.71 159.352 433.697 162.395C433.08 161.825 432.67 161.868 431.843 162.395C430.97 160.805 430.258 160.76 428.505 162.395C428.505 162.395 428.505 157.064 424.796 159.349C421.088 161.634 418.024 160.494 415.767 162.395C414.538 161.946 413.107 162.169 411.074 163.978C411.074 163.978 407.366 161.253 406.253 165.605C401.542 164.731 399.786 165.986 398.836 168.108C394.178 163.527 390.978 162.172 384.002 162.395C381.191 160.565 380.11 158.999 372.505 162.395C367.146 158.699 364.141 159.272 358.783 162.395C356.321 152.077 352.304 152.029 345.061 152.113C338.902 133.796 332.686 128.688 309.088 142.973C304.546 131.16 300.075 127.868 288.32 128.502C285.633 117.056 282.189 112.954 271.26 111.364C279.731 73.7 266.272 67.6458 233.062 71.7585C217.797 49.7079 207.809 42.8857 182.254 60.7146L181.291 59.4976C183.491 50.8591 181.31 48.5878 173.515 49.6706L172.611 48.5281C162.251 -16.2869 99.0643 25.8743 105.969 48.5281C105.133 49.0132 104.351 49.4001 103.631 49.6706C100.311 50.9179 97.1897 52.8036 94.384 55.2941C102.639 72.1841 123.385 81.457 115.523 98.5435C114.356 101.081 113.263 102.257 111.814 104.637C110.366 107.016 101.122 100.033 99.9469 104.637C99.4641 106.529 99.4803 108.075 100.689 109.587C102.047 111.288 104.229 109.829 105.969 111.111C108.646 113.084 107.462 116.245 109.218 119.108C115.834 129.893 126.961 131.501 139.258 129.771C150.534 128.185 156.769 129.431 154.463 134.722C152.157 140.013 161.049 136.956 165.218 138.53C172.412 141.247 183.996 138.3 183.39 146.147C183.07 150.301 181.428 154.049 177.457 154.906C173.78 155.7 172.665 150.723 168.927 150.336C164.271 149.854 162.444 154.305 157.801 154.906C155.502 155.203 154.03 154.051 151.867 154.906C149.667 155.776 149.479 157.921 147.417 159.095C142.724 161.767 138.44 155.758 133.695 158.333C127.962 161.446 123.408 168.416 127.02 173.947C142.821 198.147 282.41 159.476 282.41 159.476C287.694 155.613 290.907 154.221 292.053 157.952C292.401 159.087 292.237 159.824 292.053 160.999C291.135 166.846 285.18 167.2 279.072 168.235C272.965 169.269 268.136 168.56 261.642 170.901C256.875 172.619 246.599 173.298 250.145 176.994C251.192 178.084 252.059 178.443 253.483 178.898C256.873 179.981 261.66 173.424 262.384 176.994C262.531 177.722 262.406 178.155 262.384 178.898C261.782 199.073 219.735 206.344 219.735 206.344C246.521 215.477 257.213 208.453 264.585 179.913Z" fill="#FDF6DA"/>
<path d="M57.2739 111.364C22.413 95.3697 19.4638 146.342 44.2937 142.973C52.9616 170.519 60.6422 176.515 81.7506 162.395C94.5726 202.441 107.047 204.976 135.525 186.007C153.595 228.381 168.155 235.572 206.731 201.24C211.446 203.284 215.767 204.991 219.735 206.344C219.735 206.344 261.782 199.073 262.384 178.898C262.406 178.155 262.531 177.722 262.384 176.994C261.66 173.424 256.873 179.981 253.483 178.898C252.059 178.443 251.192 178.084 250.145 176.994C246.599 173.298 256.875 172.619 261.642 170.901C268.136 168.56 272.965 169.269 279.072 168.235C285.18 167.2 291.135 166.846 292.053 160.999C292.237 159.824 292.401 159.087 292.053 157.952C290.907 154.221 287.694 155.613 282.41 159.476C282.41 159.476 142.821 198.147 127.02 173.947C123.408 168.416 127.962 161.446 133.695 158.333C138.44 155.758 142.724 161.767 147.417 159.095C149.479 157.921 149.667 155.776 151.867 154.906C154.03 154.051 155.502 155.203 157.801 154.906C162.444 154.305 164.271 149.854 168.927 150.336C172.665 150.723 173.78 155.7 177.457 154.906C181.428 154.049 183.07 150.301 183.39 146.147C183.996 138.3 172.412 141.247 165.218 138.53C161.049 136.956 152.157 140.013 154.463 134.722C156.769 129.431 150.534 128.185 139.258 129.771C126.961 131.501 115.834 129.893 109.218 119.108C107.462 116.245 108.646 113.084 105.969 111.111C104.229 109.829 102.047 111.288 100.689 109.587C99.4803 108.075 99.4641 106.529 99.9469 104.637C101.122 100.033 110.366 107.016 111.814 104.637C113.263 102.257 114.356 101.081 115.523 98.5435C123.385 81.457 102.639 72.1841 94.384 55.2941C84.3404 64.2091 78.3417 80.8735 81.7506 103.748L79.8963 108.699C72.8206 103.691 62.6222 106.871 62.095 114.03L57.2739 111.364Z" fill="#C5CDB8"/>
<path d="M954.278 250.478C939.518 248.489 929.797 267.985 918.278 297.478C925.829 236.238 911.056 220.819 845.778 231.978V241.978C869.11 222.966 879.841 260.464 872.778 265.478C865.715 270.492 924.117 278.08 907.278 297.478C907.278 301.969 904.019 312.068 907.278 308.978C918.626 298.215 937.496 302.702 932.922 318.122C942.706 290.827 949.826 310.799 961.278 319.978C959.217 313.139 959.458 310.149 966.778 308.978C974.007 297.908 978.052 297.691 985.278 308.978C1002.87 307.193 1007.79 309.548 1007.28 319.978C1016.5 306.118 1021.1 310.948 1029.28 319.978C1039.15 323.949 1040.88 328.794 1040.28 339.978C1045.78 345.816 1050.03 348.921 1040.28 356.978C1055.35 345.066 1062.14 347.449 1073.28 356.978C1102.81 357.343 1093.72 366.658 1086.78 379.978C1094.55 369.554 1098.99 364.671 1107.78 366.978C1116.57 369.285 1106.03 375.211 1107.78 379.978C1112.54 392.996 1141.77 366.197 1143.28 379.978C1144.31 389.411 1126.26 390.328 1128.78 399.478C1131.97 411.077 1146.77 393.151 1158.78 392.478C1162.68 392.259 1164.87 392.478 1168.78 392.478C1173.85 392.478 1176.73 391.917 1181.78 392.478C1190.74 393.474 1194.77 399.813 1203.78 399.478C1215.83 399.029 1219.67 389.188 1230.78 384.478C1244.04 378.854 1260.87 387.829 1266.28 374.478C1268.84 368.143 1263.99 363.419 1266.28 356.978C1269.71 347.317 1286.28 339.978 1286.28 339.978C1286.28 339.978 1300.02 334.651 1309.28 333.978C1312.98 333.709 1315.12 334.578 1318.78 333.978C1328.34 332.409 1329.59 319.63 1339.28 319.978C1348.49 320.308 1349.55 331.018 1358.28 333.978C1367.52 337.114 1375.35 339.68 1383.28 333.978C1391.55 328.025 1385.48 317.689 1390.78 308.978C1393.8 304 1395.21 300.344 1400.28 297.478C1407.25 293.54 1413.72 301.251 1420.78 297.478C1428.43 293.391 1423.69 279.688 1432.28 278.478C1441.76 277.142 1447.78 297.478 1447.78 297.478L1452 314.019L1452.78 273.478C1452.97 248.001 1445.96 251.06 1429.78 265.478C1409.15 259.776 1407.59 266.66 1411.28 285.478C1370.23 270.928 1368.5 286.224 1371.28 319.978C1348.4 294.445 1337.2 297.6 1318.78 319.978C1252.82 315.047 1209.67 308.342 1243.28 366.978C1218.5 360.476 1205.96 362.287 1188.28 384.478C1188.28 384.478 1178.49 363.757 1168.78 366.978C1161.31 369.456 1158.78 384.478 1158.78 384.478C1147.36 362.236 1138.82 359.383 1120.78 366.978C1136.16 334.423 1130.27 329.609 1099.28 339.978C1117.47 310.864 1117.39 301.814 1084.28 308.978L1084.09 308.462C1064.08 254.851 1052.81 224.634 1040.28 319.978C1027.32 299.036 1028.19 281.608 979.778 285.478V265.478C973.939 247.499 970.598 237.617 954.278 250.478Z" fill="#FDF6D9"/>
<path d="M845.778 532.978H861.778H1447.78L1452 314.019L1447.78 297.478C1447.78 297.478 1441.76 277.142 1432.28 278.478C1423.69 279.688 1428.43 293.391 1420.78 297.478C1413.72 301.251 1407.25 293.54 1400.28 297.478C1395.21 300.344 1393.8 304 1390.78 308.978C1385.48 317.689 1391.55 328.025 1383.28 333.978C1375.35 339.68 1367.52 337.114 1358.28 333.978C1349.55 331.018 1348.49 320.308 1339.28 319.978C1329.59 319.63 1328.34 332.409 1318.78 333.978C1315.12 334.578 1312.98 333.709 1309.28 333.978C1300.02 334.651 1286.28 339.978 1286.28 339.978C1286.28 339.978 1269.71 347.317 1266.28 356.978C1263.99 363.419 1268.84 368.143 1266.28 374.478C1260.87 387.829 1244.04 378.854 1230.78 384.478C1219.67 389.188 1215.83 399.029 1203.78 399.478C1194.77 399.813 1190.74 393.474 1181.78 392.478C1176.73 391.917 1173.85 392.478 1168.78 392.478C1164.87 392.478 1162.68 392.259 1158.78 392.478C1146.77 393.151 1131.97 411.077 1128.78 399.478C1126.26 390.328 1144.31 389.411 1143.28 379.978C1141.77 366.197 1112.54 392.996 1107.78 379.978C1106.03 375.211 1116.57 369.285 1107.78 366.978C1098.99 364.671 1094.55 369.554 1086.78 379.978C1093.72 366.658 1102.81 357.343 1073.28 356.978C1062.14 347.449 1055.35 345.066 1040.28 356.978C1050.03 348.921 1045.78 345.816 1040.28 339.978C1040.88 328.794 1039.15 323.949 1029.28 319.978C1021.1 310.948 1016.5 306.118 1007.28 319.978C1007.79 309.548 1002.87 307.193 985.278 308.978C978.052 297.691 974.007 297.908 966.778 308.978C959.458 310.149 959.217 313.139 961.278 319.978C949.826 310.799 942.706 290.827 932.922 318.122C932.744 318.724 932.529 319.343 932.278 319.978C932.494 319.337 932.709 318.718 932.922 318.122C937.496 302.702 918.626 298.215 907.278 308.978C904.019 312.068 907.278 301.969 907.278 297.478C924.117 278.08 865.715 270.492 872.778 265.478C879.841 260.464 869.11 222.966 845.778 241.978V532.978Z" fill="#E6DDBE"/>
<path d="M845.778 532.978V241.978C845.778 241.978 805.721 250.292 799.278 270.624C794.748 284.917 811.831 294.745 805.778 308.462C798.499 324.956 779.501 318.803 763.778 327.624C746.186 337.494 733.159 340.677 721.278 356.978C716.972 362.885 715.884 369.279 715.399 375.624C714.955 381.42 715.014 387.174 713.583 392.478L707.743 394.597C705.931 396.218 704.761 399.077 706.278 404.124C709.436 414.635 699.928 405.884 697.714 407.09L697.278 407.868C696.954 410.842 692.39 403.751 686.313 402.374L678.697 405.137L644.287 417.624C637.778 420.124 645.132 423.336 645.778 425.961C647.461 432.809 649.778 438.124 649.778 438.124L637.778 442.81C616.783 431.71 614.092 437.54 612.778 452.572L597.278 458.624H568.278C557.343 452.066 551.212 450.962 540.278 458.624L498.278 461.874C482.614 448.421 476.849 452.07 469.278 468.606C457.867 453.554 453.417 454.878 448.778 473.365L444.278 494.71C435.988 519.451 450.188 518.058 469.278 520.624H356.778L837.278 532.978H845.778Z" fill="#E6DDBE"/>
<path d="M845.778 241.978V231.978C829.734 213.94 819.689 212.751 799.278 231.978C755.57 232.736 754.609 244.469 763.778 270.624C742.11 249.88 731.539 246.507 721.278 285.478C711.568 294.849 709.366 300.217 713.637 303.616C719.587 304.3 726.928 306.695 735.278 308.978C724.384 307.749 717.002 306.294 713.637 303.616C702.852 302.375 696.638 306.757 697.278 327.624C650.877 312.982 648.582 326.014 664.278 366.978C638.172 325.215 610.811 341.738 557.778 384.478C536.425 412.169 539.955 425.447 559.461 435.574C571.348 436.147 580.778 441.918 593.986 447.716C599.274 448.278 605.355 449.969 612.778 452.572C614.092 437.54 616.783 431.71 637.778 442.81C621.01 431.843 624.64 428.568 645.778 425.961C645.132 423.336 637.778 420.124 644.287 417.624C635.809 410.78 636.962 406.18 645.778 404.124L648.162 403.418C654.782 401.021 657.025 396.43 664.278 398.645C671.538 395.644 676.252 398.292 678.905 404.124C681.492 402.15 684.011 401.852 686.313 402.374L703.965 395.968L715.399 375.624C715.884 369.279 716.972 362.885 721.278 356.978C733.159 340.677 746.186 337.494 763.778 327.624C779.501 318.803 798.499 324.956 805.778 308.462C811.831 294.745 794.748 284.917 799.278 270.624C805.721 250.292 845.778 241.978 845.778 241.978Z" fill="#FDF6D9"/>
<path d="M575.266 347.248C575.249 368.615 574.348 306.812 526.266 312.248C523.295 312.584 520.639 312.814 518.266 312.951C518.266 312.951 522.845 315.038 536.766 327.748C550.687 340.459 551.557 355.125 567.766 364.748C575.529 369.358 582.484 367.289 589.266 373.248C595.744 378.941 591.813 390.69 600.266 392.397C608.532 394.066 609.67 382.108 617.766 379.748C624.515 377.782 628.737 379.748 635.766 379.748C640.843 379.748 643.837 378.531 648.766 379.748C653.94 381.026 655.9 384.075 660.766 386.248C668.057 389.504 674.069 387.362 680.266 392.397C688.526 399.108 682.495 410.477 690.266 417.748C696.332 423.424 701.568 424.904 709.766 426.248C715.161 427.133 718.526 424.689 723.766 426.248C734.288 429.379 730.386 449.716 741.266 448.248C747.227 447.444 747.855 440.36 753.766 439.248C764.652 437.201 764.712 454.386 775.266 457.748C783.452 460.356 788.849 456.024 797.266 457.748C804.903 459.313 807.986 464.754 815.766 465.248C825.01 465.835 829.217 459.725 838.266 457.748C856.389 453.791 867.426 460.528 885.766 457.748C899.769 455.626 906.74 450.211 920.766 448.248C936.236 446.083 945.145 448.248 960.766 448.248C977.559 448.248 992.542 460.739 1003.77 448.248C1003.77 448.248 1006.68 442.452 1009.27 439.248C1024.37 420.562 1047.78 430.759 1070.77 437.748C1086.15 442.427 1090.69 457.391 1106.77 457.748C1118.44 458.008 1135.13 448.248 1135.13 448.248C1132.66 445.144 1129.57 441.668 1125.77 437.748C1133.38 395.09 1120.43 396.798 1093.27 405.248C1077.15 394.998 1065.53 398.576 1041.27 417.748C1014.42 410.483 997.201 395.591 980.266 437.748C970.11 425.415 964.422 426.592 954.266 437.748C959.567 420.05 954.45 417.174 938.766 417.748C924.033 415.313 919.274 418.603 920.766 437.748C910.027 430.49 904.005 428.684 893.266 437.748C883.665 417.001 875.63 423.168 860.766 437.748C842.332 430.56 834.751 432.318 827.266 448.248C819.584 426.65 805.519 428.064 775.266 437.748C781.979 427.891 774.747 419.556 758.162 412.748C768.157 402.649 769.358 397.557 741.266 392.397C725.632 377.393 716.252 383.231 709.766 417.748C680.939 379.642 676.098 337.329 607.266 373.248C642.107 319.37 575.329 268.306 575.266 347.248Z" fill="#FDF6DA"/>
<path d="M1093.27 514.248C1115.86 508.548 1123.16 501.863 1125.77 483.248C1138.84 473.513 1152.51 470.124 1135.13 448.248C1135.13 448.248 1118.44 458.008 1106.77 457.748C1090.69 457.391 1086.15 442.427 1070.77 437.748C1047.78 430.759 1024.37 420.562 1009.27 439.248C1006.68 442.452 1003.77 448.248 1003.77 448.248C992.542 460.739 977.559 448.248 960.766 448.248C945.145 448.248 936.236 446.083 920.766 448.248C906.74 450.211 899.769 455.626 885.766 457.748C867.426 460.528 856.389 453.791 838.266 457.748C829.217 459.725 825.01 465.835 815.766 465.248C807.986 464.754 804.903 459.313 797.266 457.748C788.849 456.024 783.452 460.356 775.266 457.748C764.712 454.386 764.652 437.201 753.766 439.248C747.855 440.36 747.227 447.444 741.266 448.248C730.386 449.716 734.288 429.379 723.766 426.248C718.526 424.689 715.161 427.133 709.766 426.248C701.568 424.904 696.332 423.424 690.266 417.748C682.495 410.477 688.526 399.108 680.266 392.397C674.069 387.362 668.057 389.504 660.766 386.248C655.9 384.075 653.94 381.026 648.766 379.748C643.837 378.531 640.843 379.748 635.766 379.748C628.737 379.748 624.515 377.782 617.766 379.748C609.67 382.108 608.532 394.066 600.266 392.397C591.813 390.69 595.744 378.941 589.266 373.248C582.484 367.289 575.529 369.358 567.766 364.748C551.557 355.125 550.687 340.459 536.766 327.748C522.845 315.038 518.266 312.951 518.266 312.951C482.243 315.03 511.76 295.601 501.766 298.248C477.741 304.612 468.554 355.355 469.766 347.248C432.151 384.479 494.39 381.908 489.266 405.248C486.093 419.706 459.646 424.639 469.766 437.748C443.586 487.757 460.099 496.641 497.266 507.748L966.766 526.248H1041.27L1093.27 514.248Z" fill="#E6DDBE"/>
<path d="M1029 221.634H1056C1074.43 203.778 1082.73 205.831 1095.5 221.634H1103.5V224.134H1029V221.634Z" fill="#FDF5D8"/>
<path d="M1131 180.891C1134.49 173.863 1136.2 172.961 1138.5 180.891C1157.03 158.851 1163.1 163.349 1171.5 180.891C1176.01 171.961 1177.94 173.675 1181 180.891C1190.97 161.683 1196 168.564 1204.92 180.777L1205 180.891C1206.14 184.623 1205.76 184.955 1205 185.391H1131V180.891Z" fill="#FFF9DA"/>
<path d="M747.5 224.852V226.852H586V224.852C621.858 221.514 645.087 214.107 673 224.852C690.538 207.066 690.635 217.335 696 224.852C698.031 214.944 718.845 220.17 747.5 224.852Z" fill="#FCF7DA"/>
<path d="M533 140.684V145.184H728.5V140.684H709.5C696.441 132.276 689.435 121.143 675 140.684H610.5C601.91 133.818 597.091 134.758 588.5 140.684C573.124 125.33 566.652 124.882 559.5 140.684H533Z" fill="#F9FAD8"/>
<path d="M1264 118.626H1313.5V115.626C1303.65 111.344 1298.85 110.812 1292.5 115.626C1281.88 97.6748 1275.58 99.9461 1264 115.626L1262 118.626H1264Z" fill="#F9F8D8"/>
<path d="M1440 533H-3V1023H1440V533Z" fill="#839B81"/>
<path d="M1171.39 605L1148.49 671L1164.24 679.571L1168.53 677.286L1190 665.857L1171.39 605Z" fill="#A8C866"/>
<path d="M1164.24 679.571L1158.51 695H1171.39L1168.53 677.286L1164.24 679.571Z" fill="#603626"/>
<path d="M1129.88 671V683V695H1145.63L1129.88 671Z" fill="#603626"/>
<path d="M1129.88 617.857L1117 661.571L1129.88 671L1145.63 655.571L1129.88 617.857Z" fill="#3D5E5C"/>
<path d="M300 473L270.5 564.5L259.5 599L270.5 624L256 609V615.5L276.25 638.5L291.888 656.262L296.5 594L297.355 660.655L343 615.5V609L318 624L337.5 599L318 526.5L303 543.5L314.5 517.5L300 473Z" fill="#6D7645"/>
<path d="M296.5 594L291.888 656.262L296.5 661.5L297.355 660.655L296.5 594Z" fill="#603626"/>
<path d="M290.5 675L297.5 672L297.355 660.655L296.5 661.5L291.888 656.262L290.5 675Z" fill="#603626"/>
<path fill-rule="evenodd" clip-rule="evenodd" d="M236.5 427L226 491.5L231 542.5L226 508L198 685.5L240 761V681L244.5 761L282.5 713L236.5 424V427Z" fill="#A8C866"/>
<path d="M240 681V761V771.5H244.5V761L240 681Z" fill="#603626"/>
<path d="M391 547.517C391 547.517 386.996 625.727 390.5 639.017C390.85 640.347 391.497 641.473 392.378 642.409C392.329 641.281 392.206 640.144 392 639.017C390.667 631.713 392.264 548.62 392.972 547.517H391Z" fill="black"/>
<path d="M390.5 639.017C390.397 647.629 389.704 651.548 386 655.024C386.722 655.455 387.412 655.946 388.064 656.5C390.663 654.641 392.655 648.688 392.378 642.409C391.497 641.473 390.85 640.347 390.5 639.017Z" fill="black"/>
<path d="M430.5 501.017H428.5C428.5 501.017 429.229 559.889 429.106 598.5H430.5V501.017Z" fill="black"/>
<path d="M403.5 646.026V675.017H407.5V645.709C406.145 645.905 404.802 646.012 403.5 646.026Z" fill="black"/>
<path d="M423.5 679.017V675.017H407.5H403.5H394H357.5H299.5H283V679.017H423.5Z" fill="black"/>
<path d="M428.5 501.017C401.098 500.314 378.712 521.104 381 547.517C385.063 546.942 387.316 546.717 391 547.517H392.972C392.982 547.503 392.991 547.502 393 547.517H392.972C392.264 548.62 390.667 631.713 392 639.017C392.206 640.144 392.329 641.281 392.378 642.409C394.768 644.944 398.882 646.074 403.5 646.026C404.802 646.012 406.145 645.905 407.5 645.709C417.286 644.294 427.73 638.255 428.5 629.517C428.887 625.132 429.059 613.306 429.106 598.5C429.229 559.889 428.5 501.017 428.5 501.017Z" fill="#6D7645"/>
<path d="M390.5 639.017C386.996 625.727 391 547.517 391 547.517C387.316 546.717 385.063 546.942 381 547.517C365.224 550.782 345 561.017 342.5 587.017C340 613.017 342.5 650.179 342.5 650.179C348.989 653.196 354.248 658.613 356.422 666.517C357.815 655.459 375.343 648.668 386 655.024C389.704 651.548 390.397 647.629 390.5 639.017Z" fill="#F5CD74"/>
<path d="M299.5 675.017H357.5C357.509 671.919 357.128 669.087 356.422 666.517C354.248 658.613 348.989 653.196 342.5 650.179C325.315 642.189 299.5 651.023 299.5 675.017Z" fill="#A8C866"/>
<path d="M356.422 666.517C357.128 669.087 357.509 671.919 357.5 675.017H394C394.711 665.917 392.146 659.971 388.064 656.5C387.412 655.946 386.722 655.455 386 655.024C375.343 648.668 357.815 655.459 356.422 666.517Z" fill="#6D7645"/>
<path d="M381 547.517C378.712 521.104 401.098 500.314 428.5 501.017M381 547.517C385.063 546.942 387.316 546.717 391 547.517M381 547.517C365.224 550.782 345 561.017 342.5 587.017C340 613.017 342.5 650.179 342.5 650.179M428.5 501.017H430.5V598.5H429.106M428.5 501.017C428.5 501.017 429.229 559.889 429.106 598.5M390.5 639.017C386.996 625.727 391 547.517 391 547.517M390.5 639.017C390.397 647.629 389.704 651.548 386 655.024M390.5 639.017C390.85 640.347 391.497 641.473 392.378 642.409M391 547.517H392.972M283 675.017V679.017H423.5V675.017H407.5M283 675.017H357.5M283 675.017H299.5M299.5 675.017C299.5 651.023 325.315 642.189 342.5 650.179M299.5 675.017H357.5M357.5 675.017C357.509 671.919 357.128 669.087 356.422 666.517M357.5 675.017H394M356.422 666.517C357.815 655.459 375.343 648.668 386 655.024M356.422 666.517C354.248 658.613 348.989 653.196 342.5 650.179M394 675.017H403.5M394 675.017C394.711 665.917 392.146 659.971 388.064 656.5M386 655.024C386.722 655.455 387.412 655.946 388.064 656.5M403.5 675.017V646.026M403.5 675.017H407.5M403.5 646.026C404.802 646.012 406.145 645.905 407.5 645.709M403.5 646.026C398.882 646.074 394.768 644.944 392.378 642.409M407.5 645.709C417.286 644.294 427.73 638.255 428.5 629.517C428.887 625.132 429.059 613.306 429.106 598.5M407.5 645.709V675.017M388.064 656.5C390.663 654.641 392.655 648.688 392.378 642.409M392.378 642.409C392.329 641.281 392.206 640.144 392 639.017C390.667 631.713 392.264 548.62 392.972 547.517M392.972 547.517C392.982 547.503 392.991 547.502 393 547.517H392.972Z" stroke="black"/>
<path d="M402.85 712.775H405.27C411.319 711.554 414.95 708.675 416.16 705.6C417.37 702.525 416.16 681 416.16 681H390.75C390.75 681 389.54 702.525 390.75 705.6C391.96 708.675 396.408 712.438 402.85 712.775Z" fill="#F5CD74"/>
<path d="M362.92 712.775H365.34C371.389 711.554 375.02 708.675 376.23 705.6C377.44 702.525 376.23 681 376.23 681H350.82C350.82 681 349.61 702.525 350.82 705.6C352.03 708.675 356.478 712.438 362.92 712.775Z" fill="#F5CD74"/>
<path d="M321.78 712.775H324.2C330.249 711.554 333.88 708.675 335.09 705.6C336.3 702.525 335.09 681 335.09 681H309.68C309.68 681 308.47 702.525 309.68 705.6C310.89 708.675 315.338 712.438 321.78 712.775Z" fill="#F5CD74"/>
<path d="M321.78 712.775V718.925H324.2V712.775H321.78Z" fill="#F5CD74"/>
<path d="M362.92 718.925H365.34V712.775H362.92V718.925Z" fill="#F5CD74"/>
<path d="M402.85 718.925H405.27V712.775H402.85V718.925Z" fill="#F5CD74"/>
<path d="M421 722V718.925H405.27H402.85H365.34H362.92H324.2H321.78H300V722H421Z" fill="black"/>
<path d="M421 718.925V722H300V718.925H321.78M421 718.925H324.2M421 718.925H405.27M321.78 718.925C321.78 718.925 321.78 715.177 321.78 712.775M321.78 718.925H324.2M321.78 718.925V712.775M321.78 712.775C322.725 712.775 324.2 712.775 324.2 712.775M321.78 712.775C315.338 712.438 310.89 708.675 309.68 705.6C308.47 702.525 309.68 681 309.68 681H335.09C335.09 681 336.3 702.525 335.09 705.6C333.88 708.675 330.249 711.554 324.2 712.775M321.78 712.775H324.2M324.2 712.775V718.925M324.2 718.925H362.92M362.92 718.925V712.775M362.92 718.925H365.34M362.92 712.775H365.34M362.92 712.775C356.478 712.438 352.03 708.675 350.82 705.6C349.61 702.525 350.82 681 350.82 681H376.23C376.23 681 377.44 702.525 376.23 705.6C375.02 708.675 371.389 711.554 365.34 712.775M365.34 712.775V718.925M365.34 718.925H402.85M402.85 718.925V712.775M402.85 718.925H405.27M402.85 712.775H405.27M402.85 712.775C396.408 712.438 391.96 708.675 390.75 705.6C389.54 702.525 390.75 681 390.75 681H416.16C416.16 681 417.37 702.525 416.16 705.6C414.95 708.675 411.319 711.554 405.27 712.775M405.27 712.775V718.925" stroke="black" stroke-width="0.1"/>
<path d="M812.99 399.485L831.259 403.333H1068H1065.72L1064.38 399.485H819.08H812.99Z" fill="black"/>
<path d="M695 364.853V371.01H702.612H1009.39V364.853H695Z" fill="black"/>
<path d="M1009.39 364.853V371.01L1064.38 399.485L1065.72 403.333H1068L1009.39 364.853Z" fill="black"/>
<path fill-rule="evenodd" clip-rule="evenodd" d="M1068 403.333H831.259V675H1068V403.333ZM926.412 469.518H959.906V427.19L956.1 422.572H923.367V465.67L926.412 469.518ZM1017 469.518V427.19L1013.19 421.803L980.459 422.572V465.67L985.788 469.518H1017ZM959.906 504.15V548.786H926.412L920.322 545.708V497.993H955.339L959.906 504.15ZM1017 548.786V504.15L1013.19 499.532H979.698V544.797L985.788 548.786H1017ZM959.906 584.188V624.976H926.412L920.322 620.359V578.031H955.339L959.906 584.188ZM1018.52 627.285L1017 584.188L1013.19 576.492H979.698V622.667L985.788 627.285H1018.52Z" fill="#9F8B7D"/>
<path d="M923.367 422.572V465.67L956.1 422.572H923.367Z" fill="#3D5E5C"/>
<path d="M923.367 465.67H956.1V422.572L923.367 465.67Z" fill="#3D5E5C" fill-opacity="0.85"/>
<path d="M980.459 422.572V465.67L1013.19 421.803L980.459 422.572Z" fill="#3D5E5C"/>
<path d="M980.459 465.67H1013.19V421.803L980.459 465.67Z" fill="#3D5E5C" fill-opacity="0.84"/>
<path d="M920.322 578.031V620.359L955.339 578.031H920.322Z" fill="#3D5E5C"/>
<path d="M955.339 620.359V578.031L920.322 620.359H955.339Z" fill="#3D5E5C" fill-opacity="0.84"/>
<path d="M979.698 622.667H1015.48L1013.19 576.492L979.698 622.667Z" fill="#375654" fill-opacity="0.84"/>
<path d="M1013.19 576.492H979.698V622.667L1013.19 576.492Z" fill="#375654"/>
<path d="M1013.19 499.532H979.698V544.797L1013.19 499.532Z" fill="#375654"/>
<path d="M1013.19 544.797V499.532L979.698 544.797H1013.19Z" fill="#375654" fill-opacity="0.84"/>
<path d="M955.339 497.993H920.322V545.708L955.339 497.993Z" fill="#375654"/>
<path d="M920.322 545.708H955.339V497.993L920.322 545.708Z" fill="#375654" fill-opacity="0.84"/>
<path d="M1017 469.518V427.19L1013.19 421.803V465.67H980.459L985.788 469.518H1017Z" fill="#F3DBAF"/>
<path d="M926.412 469.518H959.906V427.19L956.1 422.572V465.67H923.367L926.412 469.518Z" fill="#F3DBAF"/>
<path d="M1017 548.786V504.15L1013.19 499.532V544.797H979.698L985.788 548.786H1017Z" fill="#F3DBAF"/>
<path d="M959.906 548.786V504.15L955.339 497.993V545.708H920.322L926.412 548.786H959.906Z" fill="#F3DBAF"/>
<path d="M959.906 624.976V584.188L955.339 578.031V620.359H920.322L926.412 624.976H959.906Z" fill="#F3DBAF"/>
<path d="M1018.52 627.285L1017 584.188L1013.19 576.492L1015.48 622.667H979.698L985.788 627.285H1018.52Z" fill="#F3DBAF"/>
<path d="M695 371.01L812.99 399.485H819.08L702.612 371.01H695Z" fill="black"/>
<path d="M1064.38 399.485L1009.39 371.01H702.612L819.08 399.485H1064.38Z" fill="#4C484E"/>
<path d="M831.259 403.333L812.99 399.485L695 371.01V616.511L831.259 675V403.333Z" fill="#746D67"/>
<path d="M837.5 495V485H457V495H465H828.5H837.5Z" fill="#80573A"/>
<path d="M465 495V507.5H828.5V495H465Z" fill="#5B3824"/>
<path d="M682 521H687H701V522.096L731 521.838V521H750V521.675L778 521.434V521H797V521.271L828.5 521V511H465V524.125L682 522.259V521Z" fill="#5A3723"/>
<path d="M687 521H682V522.259L687 522.216V521Z" fill="#352F2F"/>
<path d="M682 553.5H687V537.25V535V523.5V522.216L682 522.259V538V541V553.5Z" fill="#352F2F"/>
<path d="M687 535V537.25H699V535H687Z" fill="#352F2F"/>
<path d="M701 558.5V553.5H699H687H682V558.5H700H701Z" fill="#352F2F"/>
<path d="M701 553.5V558.5H704.5V553.5H701Z" fill="#352F2F"/>
<path d="M699 553.5H701V541V538V537.25H699V553.5Z" fill="#352F2F"/>
<path d="M701 537.25V535H699V537.25H701Z" fill="#352F2F"/>
<path d="M701 535V523.5H699V535H701Z" fill="#352F2F"/>
<path d="M701 521H687V522.216L701 522.096V521Z" fill="#352F2F"/>
<path d="M687 523.5H699H701V522.096L687 522.216V523.5Z" fill="#352F2F"/>
<path d="M828.5 507.5H465V511H828.5V507.5Z" fill="#281A10" fill-opacity="0.94"/>
<path fill-rule="evenodd" clip-rule="evenodd" d="M734 538.5H747V553.5H750V541V538V521.675L731 521.838V538V541V553.5H734V538.5ZM734 523.5V535H747.5V523.5H734Z" fill="#352F2F"/>
<path d="M750 553.5H747H734H731H729.5V558.5H752.5V553.5H750Z" fill="#352F2F"/>
<path d="M797 553.5H794H781H778H776.5V558.5H799.5V553.5H797Z" fill="#352F2F"/>
<path fill-rule="evenodd" clip-rule="evenodd" d="M781 538.5H794V553.5H797V541V538V521.271L778 521.434V538V541V553.5H781V538.5ZM781 523.5V535H794.5V523.5H781Z" fill="#352F2F"/>
<path d="M781 535V523.5H794.5V535H781Z" fill="#395654"/>
<path fill-rule="evenodd" clip-rule="evenodd" d="M778 521H797V521.271L778 521.434V521Z" fill="#80573A"/>
<path d="M794 538.5H781V553.5H794V538.5Z" fill="#395654"/>
<path d="M747 538.5H734V553.5H747V538.5Z" fill="#395654"/>
<path d="M734 535V523.5H747.5V535H734Z" fill="#395654"/>
<path d="M687 523.5V535H699V523.5H687Z" fill="#395654"/>
<path d="M687 537.25V553.5H699V537.25H687Z" fill="#395654"/>
<path d="M465 537.25L682 538V522.259L465 524.125V537.25Z" fill="#80573A"/>
<path d="M701 535V537.25V538H731V521.838L701 522.096V523.5V535Z" fill="#80573A"/>
<path d="M750 538H778V521.434L750 521.675V538Z" fill="#80573A"/>
<path d="M797 538H828.5V521L797 521.271V538Z" fill="#80573A"/>
<path d="M673 601.5H756V605.25L772 605V592.5H828H828.5V572H465V605L673 605.5V601.5Z" fill="#80573A"/>
<path d="M673 609H465V637H673V609Z" fill="#80573A"/>
<path d="M756 646.5H673V640H465V670H772V640H756V646.5Z" fill="#80573A"/>
<path d="M772 609H756V637H772V609Z" fill="#80573A"/>
<path fill-rule="evenodd" clip-rule="evenodd" d="M756 601.5H673V605.5V609V637V640V646.5H756V640V637V609V605.25V601.5ZM713 605H676V642.5H713V605ZM752.5 642.5H718H716.5V605H752.5V642.5Z" fill="#ECD6AD"/>
<path d="M713 605H676V642.5L713 605Z" fill="#375654"/>
<path d="M752.5 605H716.5V642.5L752.5 605Z" fill="#375654"/>
<path d="M718 642.5H752.5V605L716.5 642.5H718Z" fill="#3D5E5C"/>
<path d="M713 642.5V605L676 642.5H713Z" fill="#3D5E5C"/>
<path d="M673 605.5L465 605V609H673V605.5Z" fill="#603626"/>
<path d="M673 637H465V640H673V637Z" fill="#603626"/>
<path d="M828.5 572V568.5H465V572H828.5Z" fill="#603626"/>
<path d="M682 538L465 537.25V541H682V538Z" fill="#603626"/>
<path d="M731 538H701V541H731V538Z" fill="#603626"/>
<path d="M778 541V538H750V541H778Z" fill="#603626"/>
<path d="M682 558.5V553.5V541H465V568.5H828.5V541H828H797V553.5H799.5V558.5H776.5V553.5H778V541H750V553.5H752.5V558.5H729.5V553.5H731V541H701V553.5H704.5V558.5H701H700H682Z" fill="#80573A"/>
<path d="M828.5 541V538H797V541H828H828.5Z" fill="#603626"/>
<path d="M465 673.5H772V670H465V673.5Z" fill="#80573A"/>
<path d="M465 673.5V678.5H772V673.5H465Z" fill="#80573A"/>
<path d="M777 678.5V597.5H823V678.5H828.5V592.5H828H772V605V609V637V640V670V673.5V678.5H777Z" fill="#5A3322"/>
<path fill-rule="evenodd" clip-rule="evenodd" d="M777 597.5V678.5H823V597.5H777ZM783 606.5H798H802.5H817V626V631.5V650.5H802H798H783V631.5V626V606.5ZM817 655.5H783V673.5H817V655.5Z" fill="#F3DBAF"/>
<path d="M783 655.5H817V673.5H783V655.5Z" fill="#E6C99F"/>
<path d="M798 626H783.5H783V631.5H798V650.5H802V631.5H816.5H817V626H802.5V606.5H798V626Z" fill="#F3DBAF"/>
<path d="M816.5 631.5H802V650.5H817V631.5H816.5Z" fill="#3D5E5C"/>
<path d="M817 606.5H802.5V626H817V606.5Z" fill="#3D5E5C"/>
<path d="M783.5 626H798V606.5H783V626H783.5Z" fill="#3D5E5C"/>
<path d="M783 631.5V650.5H798V631.5H783Z" fill="#3D5E5C"/>
<path d="M505.5 582H525.5V590.5H505.5V582Z" fill="#4C484E"/>
<path d="M535 585.5H555V594H535V585.5Z" fill="#4C484E"/>
<path d="M515 680H535V688.5H515V680Z" fill="#4C484E"/>
<path d="M623 680H643V688.5H623V680Z" fill="#4C484E"/>
<path d="M623 585.5H643V594H623V585.5Z" fill="#4C484E"/>
<path d="M606 471.5H626V480H606V471.5Z" fill="#4C484E"/>
<path d="M623 420.5H643V429H623V420.5Z" fill="#4C484E"/>
<path d="M599 480H580.5V485H599V480Z" fill="#F2DAAE"/>
<path d="M599 631H580.5V635H599V631Z" fill="#EDD6AE"/>
<path fill-rule="evenodd" clip-rule="evenodd" d="M576 423V541.5H603.5V423H576ZM580.5 427H599V480V485V511.5V538H580.5V485V480V427Z" fill="#F2DAAE"/>
<path fill-rule="evenodd" clip-rule="evenodd" d="M576 692V573H603.5V692H576ZM599 688.5H580.5V635V631V577.5H599V631V635V688.5Z" fill="#F2DAAE"/>
<path d="M646.5 351L488 400V418L646.5 368V351Z" fill="#333134"/>
<path fill-rule="evenodd" clip-rule="evenodd" d="M488 715H646.5V368L488 418V715ZM576 541.5V423H603.5V541.5H576ZM576 573V692H603.5V573H576ZM519 423H500.5V429H519V423ZM539 435H519V443.5H539V435ZM511.5 495.5V488H492V495.5H501.75H511.5ZM558 506.5H537H535V515H558V506.5ZM555 585.5H535V594H555V585.5ZM525.5 582H505.5V590.5H525.5V582ZM535 600H515V608.5H535V600ZM643 420.5H623V429H643V420.5ZM626 471.5H606V480H626V471.5ZM643 585.5H623V594H643V585.5ZM643 680H623V688.5H643V680ZM535 680H515V688.5H535V680Z" fill="#3C3C3E"/>
<path d="M537 506.5H558V515H535V506.5H537Z" fill="#4C484E"/>
<path d="M511.5 488V495.5H501.75H492V488H511.5Z" fill="#4C484E"/>
<path d="M500.5 423H519V429H500.5V423Z" fill="#4C484E"/>
<path d="M519 435H539V443.5H519V435Z" fill="#4C484E"/>
<path d="M515 600H535V608.5H515V600Z" fill="#4C484E"/>
<path d="M599 427H580.5V480H599V427Z" fill="#385654"/>
<path d="M580.5 538H599V511.5V485H580.5V538Z" fill="#385654"/>
<path d="M599 577.5H580.5V631H599V577.5Z" fill="#385654"/>
<path d="M580.5 688.5H599V635H580.5V688.5Z" fill="#385654"/>
<path d="M931.85 685.775H934.27C940.319 684.554 943.95 681.675 945.16 678.6C946.37 675.525 945.16 654 945.16 654H919.75C919.75 654 918.54 675.525 919.75 678.6C920.96 681.675 925.408 685.438 931.85 685.775Z" fill="#F5CD74"/>
<path d="M891.92 685.775H894.34C900.389 684.554 904.02 681.675 905.23 678.6C906.44 675.525 905.23 654 905.23 654H879.82C879.82 654 878.61 675.525 879.82 678.6C881.03 681.675 885.478 685.438 891.92 685.775Z" fill="#F5CD74"/>
<path d="M850.78 685.775H853.2C859.249 684.554 862.88 681.675 864.09 678.6C865.3 675.525 864.09 654 864.09 654H838.68C838.68 654 837.47 675.525 838.68 678.6C839.89 681.675 844.338 685.438 850.78 685.775Z" fill="#F5CD74"/>
<path d="M850.78 685.775V691.925H853.2V685.775H850.78Z" fill="#F5CD74"/>
<path d="M891.92 691.925H894.34V685.775H891.92V691.925Z" fill="#F5CD74"/>
<path d="M931.85 691.925H934.27V685.775H931.85V691.925Z" fill="#F5CD74"/>
<path d="M950 695V691.925H934.27H931.85H894.34H891.92H853.2H850.78H829V695H950Z" fill="black"/>
<path d="M950 691.925V695H829V691.925H850.78M950 691.925H853.2M950 691.925H934.27M850.78 691.925C850.78 691.925 850.78 688.177 850.78 685.775M850.78 691.925H853.2M850.78 691.925V685.775M850.78 685.775C851.725 685.775 853.2 685.775 853.2 685.775M850.78 685.775C844.338 685.438 839.89 681.675 838.68 678.6C837.47 675.525 838.68 654 838.68 654H864.09C864.09 654 865.3 675.525 864.09 678.6C862.88 681.675 859.249 684.554 853.2 685.775M850.78 685.775H853.2M853.2 685.775V691.925M853.2 691.925H891.92M891.92 691.925V685.775M891.92 691.925H894.34M891.92 685.775H894.34M891.92 685.775C885.478 685.438 881.03 681.675 879.82 678.6C878.61 675.525 879.82 654 879.82 654H905.23C905.23 654 906.44 675.525 905.23 678.6C904.02 681.675 900.389 684.554 894.34 685.775M894.34 685.775V691.925M894.34 691.925H931.85M931.85 691.925V685.775M931.85 691.925H934.27M931.85 685.775H934.27M931.85 685.775C925.408 685.438 920.96 681.675 919.75 678.6C918.54 675.525 919.75 654 919.75 654H945.16C945.16 654 946.37 675.525 945.16 678.6C943.95 681.675 940.319 684.554 934.27 685.775M934.27 685.775V691.925" stroke="black" stroke-width="0.1"/>
<path d="M755.842 721C756.729 709.646 754.919 700.848 751.382 694.306C734.681 663.419 679.486 682.818 687.859 721H755.842Z" fill="#6D7645"/>
<path d="M751.382 694.306C754.919 700.848 756.729 709.646 755.842 721H794.4C799.474 690.746 771.247 677.276 751.382 694.306Z" fill="#F1A54D"/>
<path d="M755.842 721C756.729 709.646 754.919 700.848 751.382 694.306M755.842 721H687.859M755.842 721H794.4M687.859 721C679.486 682.818 734.681 663.419 751.382 694.306M687.859 721H794.4M751.382 694.306C771.247 677.276 799.474 690.746 794.4 721" stroke="black" stroke-width="0.5"/>
<path d="M1009 698.689H1099C1086.88 647.411 1029.13 636.118 1012.04 686.688C1010.8 690.36 1009.78 694.357 1009 698.689Z" fill="#A8C866"/>
<path d="M959 698.689V701.689H1117.5V698.689H1099H1009H984H959Z" fill="black"/>
<path d="M1009 698.689C1009.78 694.357 1010.8 690.36 1012.04 686.688C998 676.688 984 683.688 984 698.689H1009Z" fill="#F1A54D"/>
<path d="M1117.5 698.689V701.689H959V698.689H984M1117.5 698.689H1009M1117.5 698.689H1099M1009 698.689C1009.78 694.357 1010.8 690.36 1012.04 686.688M1009 698.689H984M1009 698.689H1099M1099 698.689C1086.88 647.411 1029.13 636.118 1012.04 686.688M1012.04 686.688C998 676.688 984 683.688 984 698.689" stroke="black" stroke-width="0.1"/>
<path d="M160 769.5C215.867 768.624 277.226 766.454 341.637 766.061L160 765.694V769.5Z" fill="black"/>
<path d="M1213 769V767.821L1153.22 767.7L1146.33 767.686L1112.99 767.619L1036.71 767.465C1106.08 767.992 1166.47 768.54 1213 769Z" fill="black"/>
<path d="M908.172 767.205L973.891 767.338L974.425 767.339C974.517 767.243 974.615 767.136 974.716 767.018C953.241 766.872 931.13 766.73 908.502 766.596C908.392 766.842 908.282 767.047 908.172 767.205Z" fill="black"/>
<path d="M747.427 765.824V766.881L857.785 767.103V766.312C842.401 766.232 826.829 766.155 811.105 766.084C790.125 765.988 768.872 765.901 747.427 765.824Z" fill="black"/>
<path d="M539.356 765.467V766.46L672.705 766.73V765.603C660.668 765.575 648.601 765.551 636.518 765.531C604.162 765.478 571.687 765.454 539.356 765.467Z" fill="black"/>
<path d="M709.491 766.804L747.427 766.881V765.824C734.446 765.777 721.395 765.735 708.292 765.696C708.575 766.528 708.975 766.752 709.234 766.803L709.491 766.804Z" fill="black"/>
<path d="M679.603 765.619V766.744L709.234 766.803C708.975 766.752 708.575 766.528 708.292 765.696C698.754 765.668 689.189 765.642 679.603 765.619Z" fill="black"/>
<path d="M672.705 766.73L679.603 766.744V765.619L672.705 765.603V766.73Z" fill="black"/>
<path d="M517.514 765.48V766.333L539.356 766.46V765.467C532.067 765.469 524.785 765.474 517.514 765.48Z" fill="black"/>
<path d="M481.878 765.527V766.344L517.514 766.333V765.48C505.603 765.491 493.72 765.506 481.878 765.527Z" fill="black"/>
<path d="M476.13 765.538V766.333L481.878 766.344V765.527C479.961 765.531 478.045 765.534 476.13 765.538Z" fill="black"/>
<path d="M341.637 766.061L476.13 766.333V765.538C430.403 765.626 385.318 765.794 341.637 766.061Z" fill="black"/>
<path d="M857.785 767.103L878.477 767.145V766.424C871.62 766.386 864.721 766.349 857.785 766.312V767.103Z" fill="black"/>
<path d="M878.477 767.145L907.216 767.203L908.172 767.205C908.282 767.047 908.392 766.842 908.502 766.596C898.589 766.537 888.578 766.48 878.477 766.424V767.145Z" fill="black"/>
<path d="M1026.77 767.445C1026.77 767.426 1026.78 767.408 1026.78 767.39C1009.91 767.264 992.53 767.14 974.716 767.018C974.615 767.136 974.517 767.243 974.425 767.339L1026.77 767.445Z" fill="black"/>
<path d="M1083.1 651.912V701.279C1096.49 707.168 1107.36 719.517 1111.55 739.109H1126.78L1125.63 685.94H1137.13V651.912C1133.97 617.985 1090.04 610.187 1083.1 651.912Z" fill="#A8C866"/>
<path d="M1137.13 685.94H1125.63L1126.78 739.109C1129.41 745.916 1137.49 751.269 1146.33 753.184C1148.6 753.678 1150.93 753.943 1153.22 753.947C1163.58 753.962 1173.33 748.638 1175.06 734.856V685.94H1137.13Z" fill="#F5CD74"/>
<path d="M1083.1 701.279C1058.13 690.298 1024.38 701.769 1008.8 730.602C1020.33 736.953 1029.06 750.213 1026.78 767.39L1036.71 767.465L1112.99 767.619C1113.89 756.805 1113.31 747.321 1111.55 739.109C1107.36 719.517 1096.49 707.168 1083.1 701.279Z" fill="#F1A54D"/>
<path d="M971.196 739.109C972.207 740.47 973.109 741.893 973.891 743.363C980.889 756.522 976.919 764.443 974.716 767.018C992.53 767.14 1009.91 767.264 1026.78 767.39C1029.06 750.213 1020.33 736.953 1008.8 730.602C995.991 723.549 979.715 725.018 971.196 739.109Z" fill="#6D7645"/>
<path d="M971.196 739.109C959.22 723.002 931.915 715.746 907.216 744.426C911.4 750.58 910.091 763.006 908.502 766.596C931.13 766.73 953.241 766.872 974.716 767.018C976.919 764.443 980.889 756.522 973.891 743.363C973.109 741.893 972.207 740.47 971.196 739.109Z" fill="#F5CD74"/>
<path d="M907.216 744.426C901.861 736.551 889.54 731.345 878.477 743.363V766.424C888.578 766.48 898.589 766.537 908.502 766.596C910.091 763.006 911.4 750.58 907.216 744.426Z" fill="#A8C866"/>
<path d="M857.785 736.983C856.615 719.279 814.251 719.413 809.503 740C810.45 741.154 811.226 742.285 811.802 743.363C819.038 756.885 814.7 760.511 811.105 766.084C826.829 766.155 842.401 766.232 857.785 766.312V736.983Z" fill="#A8C866"/>
<path d="M878.477 640.484H857.785V736.983V766.312C864.721 766.349 871.62 766.386 878.477 766.424V743.363V640.484Z" fill="#4C484E"/>
<path d="M809.503 740C798.067 726.067 761.593 708.881 747.427 743.363V765.824C768.872 765.901 790.125 765.988 811.105 766.084C814.7 760.511 819.038 756.885 811.802 743.363C811.226 742.285 810.45 741.154 809.503 740Z" fill="#ECD6AD"/>
<path d="M747.427 743.363C736.903 734.42 712.94 736.983 709.491 752.394C707.649 760.627 707.775 764.176 708.292 765.696C721.395 765.735 734.446 765.777 747.427 765.824V743.363Z" fill="#A8C866"/>
<path d="M658.91 684.877V736.983H655.462C658.366 745.968 665.245 750.625 672.705 752.01C674.982 752.433 677.314 752.551 679.603 752.394C689.651 751.705 698.885 745.721 699.145 736.983C699.433 727.336 699.272 725.116 699.145 725.054V726.349C698.966 726.297 699.045 725.005 699.145 725.054V684.877H658.91Z" fill="#F1A54D"/>
<path d="M604.03 699.764C615.107 703.399 624.767 710.719 631.321 721.032C635.038 726.882 637.45 732.207 638.93 736.983H655.462H658.91V684.877V639.152C658.91 612.567 604.03 609.377 604.03 639.152V699.764Z" fill="#A8C866"/>
<path d="M604.03 699.764C583.766 693.115 558.759 698.795 539.356 721.032V765.467C571.687 765.454 604.162 765.478 636.518 765.531C638.414 762.772 643.878 752.949 638.93 736.983C637.45 732.207 635.038 726.882 631.321 721.032C624.767 710.719 615.107 703.399 604.03 699.764Z" fill="#F5CD74"/>
<path d="M539.356 639.152H517.514V765.48C524.785 765.474 532.067 765.469 539.356 765.467V721.032V639.152Z" fill="#4C484E"/>
<path d="M476.13 739.109H481.878H506.019C506.019 739.109 507.51 676.439 506.019 646.595C504.527 616.752 449.368 621.261 450.84 646.595C452.311 671.93 450.84 739.109 450.84 739.109H476.13Z" fill="#6D7645"/>
<path d="M481.878 739.109H476.13V765.538L481.878 765.527V739.109Z" fill="#80573A"/>
<path d="M679.603 752.394C677.314 752.551 674.982 752.433 672.705 752.01V765.603L679.603 765.619V752.394Z" fill="#80573A"/>
<path d="M1146.33 753.184V767.686L1153.22 767.7V753.947C1150.93 753.943 1148.6 753.678 1146.33 753.184Z" fill="#80573A"/>
<path d="M857.785 767.103L747.427 766.881L709.491 766.804C709.491 766.804 709.388 766.834 709.234 766.803L679.603 766.744L672.705 766.73L539.356 766.46L517.514 766.333L481.878 766.344L476.13 766.333L341.637 766.061C277.226 766.454 215.867 768.624 160 769.5L1213 771.5V769C1166.47 768.54 1106.08 767.992 1036.71 767.465L1026.77 767.445L974.425 767.339C973.642 768.15 973.214 768.151 973.891 767.338L908.172 767.205C907.834 767.692 907.499 767.739 907.216 767.203L878.477 767.145L857.785 767.103Z" fill="black"/>
<path d="M747.427 766.881L857.785 767.103M747.427 766.881L709.491 766.804M747.427 766.881V765.824M747.427 743.363C761.593 708.881 798.067 726.067 809.503 740M747.427 743.363C736.903 734.42 712.94 736.983 709.491 752.394C707.649 760.627 707.775 764.176 708.292 765.696M747.427 743.363V765.824M809.503 740C814.251 719.413 856.615 719.279 857.785 736.983M809.503 740C810.45 741.154 811.226 742.285 811.802 743.363C819.038 756.885 814.7 760.511 811.105 766.084M857.785 736.983C857.808 737.339 857.831 737.694 857.853 738.046M857.785 736.983V766.312M857.785 736.983V640.484M857.785 767.103L878.477 767.145M857.785 767.103V766.312M160 769.5V765.694M160 769.5C215.867 768.624 277.226 766.454 341.637 766.061M160 769.5L1213 771.5V769M1213 769V767.821L1153.22 767.7M1213 769C1166.47 768.54 1106.08 767.992 1036.71 767.465M160 762.504V765.694M160 765.694L341.637 766.061M476.13 766.333L481.878 766.344M476.13 766.333L341.637 766.061M476.13 766.333V765.538M476.13 739.109H481.878M476.13 739.109V765.538M476.13 739.109H450.84M481.878 766.344L517.514 766.333M481.878 766.344V765.527M481.878 739.109V765.527M481.878 739.109H506.019M506.019 739.109H450.84M506.019 739.109C506.019 739.109 507.51 676.439 506.019 646.595C504.527 616.752 449.368 621.261 450.84 646.595C452.311 671.93 450.84 739.109 450.84 739.109M517.514 766.333L539.356 766.46M517.514 766.333V765.48M539.356 766.46L672.705 766.73M539.356 766.46V765.467M539.356 721.032V639.152H517.514V765.48M539.356 721.032C558.759 698.795 583.766 693.115 604.03 699.764M539.356 721.032V765.467M604.03 699.764C615.107 703.399 624.767 710.719 631.321 721.032C635.038 726.882 637.45 732.207 638.93 736.983M604.03 699.764C604.03 699.764 604.03 668.927 604.03 639.152M604.03 699.764V639.152M604.03 639.152C604.03 609.377 658.91 612.567 658.91 639.152M658.91 639.152C658.91 649.746 658.91 667.433 658.91 684.877M658.91 639.152V684.877M638.93 736.983H655.462M638.93 736.983C643.878 752.949 638.414 762.772 636.518 765.531M635.919 766.333C635.919 766.333 636.152 766.063 636.518 765.531M658.91 684.877C658.91 711.206 658.91 736.983 658.91 736.983M658.91 684.877H699.145V725.054M658.91 684.877V736.983M658.91 736.983H655.462M655.462 736.983C658.366 745.968 665.245 750.625 672.705 752.01M672.705 752.01C674.982 752.433 677.314 752.551 679.603 752.394M672.705 752.01V765.603M672.705 766.73L679.603 766.744M672.705 766.73V765.603M679.603 752.394C689.651 751.705 698.885 745.721 699.145 736.983C699.433 727.336 699.272 725.116 699.145 725.054M679.603 752.394V765.619M679.603 766.744L709.234 766.803M679.603 766.744V765.619M709.491 766.804C709.491 766.804 709.388 766.834 709.234 766.803M709.491 766.804L709.234 766.803M810.653 766.804C810.802 766.56 810.953 766.32 811.105 766.084M857.785 640.484H878.477V743.363M857.785 640.484V766.312M878.477 767.145L907.216 767.203M878.477 767.145V766.424M878.477 743.363C889.54 731.345 901.861 736.551 907.216 744.426M878.477 743.363V766.424M907.216 744.426C931.915 715.746 959.22 723.002 971.196 739.109M907.216 744.426C911.4 750.58 910.091 763.006 908.502 766.596M907.216 767.203C907.499 767.739 907.834 767.692 908.172 767.205M907.216 767.203L908.172 767.205M973.891 767.338C973.214 768.151 973.642 768.15 974.425 767.339M973.891 767.338L908.172 767.205M973.891 767.338L974.425 767.339M971.196 739.109C972.207 740.47 973.109 741.893 973.891 743.363C980.889 756.522 976.919 764.443 974.716 767.018M971.196 739.109C979.715 725.018 995.991 723.549 1008.8 730.602M1026.77 767.445L974.425 767.339M1026.77 767.445L1036.71 767.465M1026.77 767.445C1026.77 767.426 1026.78 767.408 1026.78 767.39M1008.8 730.602C1024.38 701.769 1058.13 690.298 1083.1 701.279M1008.8 730.602C1020.33 736.953 1029.06 750.213 1026.78 767.39M1112.99 767.619C1113.89 756.805 1113.31 747.321 1111.55 739.109M1112.99 767.619L1146.33 767.686M1112.99 767.619L1036.71 767.465M1083.1 701.279V651.912C1090.04 610.187 1133.97 617.985 1137.13 651.912V685.94M1083.1 701.279C1096.49 707.168 1107.36 719.517 1111.55 739.109M1137.13 685.94H1125.63L1126.78 739.109M1137.13 685.94H1175.06V734.856C1173.33 748.638 1163.58 753.962 1153.22 753.947M1126.78 739.109H1111.55M1126.78 739.109C1129.41 745.916 1137.49 751.269 1146.33 753.184M1146.33 753.184V767.686M1146.33 753.184C1148.6 753.678 1150.93 753.943 1153.22 753.947M1146.33 767.686L1153.22 767.7M1153.22 753.947V767.7M1153.22 767.821V767.7M709.234 766.803C708.975 766.752 708.575 766.528 708.292 765.696M974.425 767.339C974.517 767.243 974.615 767.136 974.716 767.018M908.172 767.205C908.282 767.047 908.392 766.842 908.502 766.596M341.637 766.061C385.318 765.794 430.403 765.626 476.13 765.538M1036.71 767.465C1033.42 767.44 1030.11 767.415 1026.78 767.39M1036.71 767.465L1026.78 767.39M974.716 767.018C953.241 766.872 931.13 766.73 908.502 766.596M974.716 767.018C992.53 767.14 1009.91 767.264 1026.78 767.39M908.502 766.596C898.589 766.537 888.578 766.48 878.477 766.424M747.427 765.824C768.872 765.901 790.125 765.988 811.105 766.084M747.427 765.824C734.446 765.777 721.395 765.735 708.292 765.696M857.785 766.312C842.401 766.232 826.829 766.155 811.105 766.084M857.785 766.312C864.721 766.349 871.62 766.386 878.477 766.424M539.356 765.467C571.687 765.454 604.162 765.478 636.518 765.531M539.356 765.467C532.067 765.469 524.785 765.474 517.514 765.48M672.705 765.603C660.668 765.575 648.601 765.551 636.518 765.531M672.705 765.603C675.006 765.608 677.305 765.613 679.603 765.619M672.705 765.603L679.603 765.619M708.292 765.696C698.754 765.668 689.189 765.642 679.603 765.619M517.514 765.48C505.603 765.491 493.72 765.506 481.878 765.527M481.878 765.527C479.961 765.531 478.045 765.534 476.13 765.538M481.878 765.527L476.13 765.538M699.145 725.054V726.349C698.966 726.297 699.045 725.005 699.145 725.054Z" stroke="black" stroke-width="0.1"/>
</g>
<defs>
<clipPath id="clip0_5_25">
<rect width="1440" height="1024" fill="white"/>
</clipPath>
</defs>
</svg>
